#N canvas 950 663 307 167 12;
#N canvas 396 488 675 314 osc 0;
#X obj 92 250 netsend -u -b;
#X msg 62 71 connect 255.255.255.255 7770;
#X obj 92 158 oscformat reboot;
#X msg 92 131 1;
#X obj 62 48 loadbang;
#X msg 218 131 1;
#X obj 218 158 oscformat shutdown;
#X msg 358 131 1;
#X obj 358 158 oscformat update;
#X msg 488 131 1;
#X obj 488 158 oscformat updatesamples;
#X obj 92 105 r reboot;
#X obj 218 105 r shutdown;
#X obj 358 105 r update;
#X obj 488 105 r updatesamples;
#X msg 38 12 disconnect;
#X connect 1 0 0 0;
#X connect 2 0 0 0;
#X connect 3 0 2 0;
#X connect 4 0 1 0;
#X connect 5 0 6 0;
#X connect 6 0 0 0;
#X connect 7 0 8 0;
#X connect 8 0 0 0;
#X connect 9 0 10 0;
#X connect 10 0 0 0;
#X connect 11 0 3 0;
#X connect 12 0 5 0;
#X connect 13 0 7 0;
#X connect 14 0 9 0;
#X connect 15 0 0 0;
#X restore 173 73 pd osc;
#X obj 24 36 bng 19 250 50 0 reboot empty reboot 25 10 0 12 #fcfcfc #000000 #000000;
#X obj 24 103 bng 19 250 50 0 updatesamples empty updatesamples 25 10 0 12 #fcfcfc #000000 #000000;
#X obj 24 84 bng 19 250 50 0 update empty update 25 10 0 12 #fcfcfc #000000 #000000;
#X obj 24 55 bng 19 250 50 0 shutdown empty shutdown 25 10 0 12 #fcfcfc #000000 #000000;
#X text 22 6 control all devices on network;
